 http://img69.imageshack.us/img69/2689/everythingmustgo2010.jpg

Country.......: USA
Genre.........: Drama, Comedy
Date release..: 10.09.2010 [World]
Director......: Dan Rush
Writers.......: Dan Rush, Raymond Carver
Duration......: 97 min.
More..........: http://www.imdb.com/title/tt1531663
Trailer.......: http://www.imdb.com/video/imdb/vi3939933465
Trailer.......:

Pilot :
When an alcoholic relapses, causing him to lose his wife and his job, he holds a yard sale on his front lawn in an attempt to start over. A new neighbor might be the key to his return to form. 

Cats :
Will Ferrell   	 ...  	Nick Halsey
Rebecca Hall 	... 	Samantha
Michael Pena 	... 	Frank Garcia
Stephen Root 		
Laura Dern 	... 	Delilah
Glenn Howerton 	... 	Gary
Shannon Whirry 	... 	Nurse
Christopher Jordan Wallace 	... 	Kenny Loftus
Jason Spisak 	... 	Hipster
Leslea Fisher 	... 	Skinny White Girl
Todd Bryant 	... 	Repo Guy
Annie Boon 	... 	Waitress
Daniel Ganea 	... 	Neighbor
Tomas Johansson 	... 	Yard Sale Patron
Leeann Dearing 	... 	Girlfriend 

Data Technical :
!!! SAMPLE !!!
Audio.....: English
Subtitles.: English .srt
Format                           : AVI
Format/Info                      : Audio Video Interleave
File size                        : 1.44 GiB
Duration                         : 1h 37mn
Overall bit rate                 : 2 118 Kbps
Writing application              : VirtualDubMod 1.5.10.3
Writing library                  : VirtualDubMod build 2550/release
Video
ID                               : 0
Format                           : MPEG-4 Visual
Format profile                   : Advanced Simple@L5
Format settings, BVOP            : Yes
Format settings, QPel            : No
Format settings, GMC             : No warppoints
Format settings, Matrix          : Default (MPEG)
Codec ID                         : XVID
Codec ID/Hint                    : XviD
Duration                         : 1h 37mn
Bit rate                         : 1 661 Kbps
Width                            : 720 pixels
Height                           : 304 pixels
Display aspect ratio             : 2.35:1
Frame rate                       : 23.976 fps
Color space                      : YUV
Chroma subsampling               : 4:2:0
Bit depth                        : 8 bits
Scan type                        : Progressive
Bits/(Pixel*Frame)               : 0.317
Stream size                      : 1.13 GiB (78%)
Writing library                  : XviD 64
Audio
ID                               : 1
Format                           : AC-3
Format/Info                      : Audio Coding 3
Mode extension                   : CM (complete main)
Codec ID                         : 2000
Duration                         : 1h 37mn
Bit rate mode                    : Constant
Bit rate                         : 448 Kbps
Channel(s)                       : 6 channels
Channel positions                : Front: L C R, Side: L R, LFE
Sampling rate                    : 48.0 KHz
Bit depth                        : 16 bits
Stream size                      : 311 MiB (21%)
Alignment                        : Split accross interleaves
Interleave, duration             : 42 ms (1.00 video frame)
Interleave, preload duration     : 500 ms

Screen : 
http://img217.imageshack.us/img217/289/everythingmustgo2010s1.jpg 
http://img17.imageshack.us/img17/9397/everythingmustgo2010s2.jpg 
http://img812.imageshack.us/img812/7686/everythingmustgo2010s3.jpg 
http://img585.imageshack.us/img585/7163/everythingmustgo2010s4.jpg 
http://img12.imageshack.us/img12/5175/everythingmustgo2010s5.jpg